# xmcd CD database file
#
# Track frame offsets:
#	150
#	13301
#	27455
#	41646
#	55408
#	68226
#	83444
#	97120
#	107613
#	121950
#	136414
#	151493
#	162173
#	176273
#	191778
#	205682
#
# Disc length: 2953 seconds
#
# Revision: 0
# Processed by: cddbd v1.5.2PL0 Copyright (c) Steve Scherf et al.
# Submitted via: CDex 1.70beta2
#
DISCID=d80b8710
DTITLE=Various Artist - Classicos da Liberdade Sertaneja
DYEAR=1900
DGENRE=Country
TTITLE0=Chitãozinho and Xororó - Fio De Cabelo
TTITLE1=João Mineiro and Marciano - Ainda Ontem Chorei De Saudade
TTITLE2=Barreirito - Onde Estão Os Meus Passos
TTITLE3=Alan and Aladin - Liquei Prá Dizer Que Te Amo
TTITLE4=Gilberto and Gilmar - Música Da Saudade
TTITLE5=Trio Parada Dura - Blusa Vermelha
TTITLE6=Teodoro and Sampaio - Pinga Ni Mim
TTITLE7=Irídio and Irineu - Bica D’Agua
TTITLE8=Peão Carreiro and Zé Paulo - Berrante Da Saudade
TTITLE9=Solevante and Soleny - Arapuca
TTITLE10=Gino and Geno - As Aguas Do São Francisco
TTITLE11=Tonico and Tinoco - Baile Na Roça
TTITLE12=Silveira and Silveirinha - Linda Cigana
TTITLE13=Zico and Zeca - Tristeza Do Jeca
TTITLE14=Liu and Leo - Saudade De Minha Terra
TTITLE15=Zé Fortuna and Pitangueira - Lembrança
EXTD=
EXTT0=
EXTT1=
EXTT2=
EXTT3=
EXTT4=
EXTT5=
EXTT6=
EXTT7=
EXTT8=
EXTT9=
EXTT10=
EXTT11=
EXTT12=
EXTT13=
EXTT14=
EXTT15=
PLAYORDER=
